<svg height="554" viewBox="0 0 564 554" width="564" xmlns="http://www.w3.org/2000/svg"><g fill="#53cd1d" stroke="#fff" stroke-width=".95"><path d="m93.035156 270.533203c-11.165397.100495-16.610168-9.169128-21.035156-19.033203-9.200005-20.799957-13.799603-43.59964-25.099609-63.599609-13.599991-24.100006-35.400794-44.901215-42.300782-72.201172-15.09999-59.999939 34.100064-105.699585 89.5-113.59961 59.799927-8.599975 93.000046 43.499604 141.5 67.59961 13.099991 6.599975 28.50116 11.400757 39.201172 21.800781 4.100037 4 8.898865 10.400024 7.798828 16.5-1.599975 8.700012-10.799987 12.900024-18.5 15-15.299972 4.099976-37.199234-.899628-47.699218 14.400391-17.099991 24.799957 22.399582 55.099273 7.599609 79.699218-5.799988 9.700013-19.100815 6.5-27.300781 2.5-16.400009-7.799987-39.598435-23.499633-57.898438-13.099609-22.499977 12.900024-14.400818 59.700806-42.800781 63.800781-1.03125.148438-2.018623.223908-2.964844.232422zm397.427735-71.683594c-39.779602-.122528-61.985138-38.357849-91.363282-60.949218-10.099975-7.800049-34.199951-15.801239-32-31.701172 1.5-11.100037 17.100769-15.298401 26.300782-17.898438 14.099975-4.099975 28.298828-8.501159 40.798828-16.701172 16.699981-11 31.201202-25.299255 52.201172-27.699218 8.899963-1 19.299255 1.599609 27.699218 4.599609 62.799988 21.799957 64.299988 110.699677 8.5 141.099609-7.099975 3.900025-14.698791 7.499573-22.798828 8.59961-3.220306.450012-6.329345.659668-9.33789.65039zm-1.955078-41.791015c1.471954-.01529 3.001953-.132813 4.591796-.359375 39.099976-5.600037 36.501099-72.898865-4.798828-66.298828-36.515594 5.861694-36.003021 67.034484.207032 66.658203zm-167.199219-30.53711c-9.646851-.103119-19.658203-2.821838-26.408203-9.421875-14.5-14.299987 3.799255-28.599975 17.699218-30.5 10.700013-1.5 25 .5 33 8.5 13.200013 13.300049-.200378 28.301209-14.90039 30.701172-3 .5-6.175019.755066-9.390625.720703z"/><path d="m359.753906 449.144531c-6.945923.020172-14.129303-1.159759-20.654297-3.24414-6.299987-2-12.399963-3.000397-18-6.900391-33.19992-23.199982-28.599609-60.200836-36.099609-95.300781-1.099976-5.100006-2.100769-10.199219-3.300781-15.199219-3.200012-12.899963-20.898834-45 5.201172-46 14.799987-.599976 29.799621 10.399231 43.599609 14.199219 32.599945 9 68.600006-1.799958 92.5 28 39.799957 49.699951-.499695 122.000396-61.099609 124.40039-.712494.028138-1.427948.042847-2.146485.044922zm-.402343-41.019531c1.483734.005768 3.001953-.099213 4.548828-.324219 13.599975-1.899994 26.499633-10.600769 30.599609-24.300781 6.200012-20.899963-10.200043-42-32.5-38.5-13.299988 2.100006-25.900024 11.000793-30 24.300781-5.857025 19.244507 7.73349 38.747986 27.351563 38.824219zm-272.492188-67.386719c-8.609444-.087036-13.533203-8.033996-15.759766-16.138672-4.099998-14.700012.501206-41.899963 18.201172-46 10.400017-2.399963 16.898834 6.799622 19.298828 15.59961 3.899987 14.199951-1.200424 42.701172-18.40039 46.201172-1.170311.240631-2.282547.348571-3.339844.33789zm170.527344-62.417968c-14.134857-.036835-28.921082-14.923462-32.886719-26.820313-2.899994-8.400024-3.299576-19.600769 6.400391-23.800781 16.59999-7.200012 34.599609 10.800781 40.099609 24.800781 3 7.700012 2.999634 20.199219-5.900391 24.199219-2.5 1.125-5.095337 1.627929-7.71289 1.621094z"/><path d="m79.65625 552.369141c-42.598774-.359558-84.71954-37.306702-77.457031-82.369141 4.599971-28.599976 27.900406-45.999634 43.90039-68.099609 7.199974-9.799988 13.099614-19.801209 18.59961-30.701172 3.099975-6.100006 7.001198-13.699616 14.201172-15.59961 8.399986-2.200012 15.099212 2.600403 18.699218 9.900391 7.599999 15 11.900399 31.399597 20.900391 45.599609 9.099998 14.299988 22.300385 25.000428 28.900391 40.900391 17.800003 42.699982-4.499649 86.599182-49.59961 98.199219-5.962494 1.525024-12.05899 2.221313-18.144531 2.169922zm-2.226562-41.603516c1.406379.008301 2.830467-.078125 4.269531-.265625 4.999992-.700012 9.901191-1.900024 14.201172-4.5 31.099975-19 5.800384-61.399994-25.59961-56.5-4.699974.700012-9.200779 2.199219-13.300781 4.699219-28.974966 17.251526-8.166721 56.397918 20.429688 56.566406z"/></g></svg>