<svg height="554" viewBox="0 0 2495 554" width="2495" xmlns="http://www.w3.org/2000/svg"><path d="m1721.505859 483c-14 0-18.080078-3-18.080078-3v-300.271484s5.742188-3 16.742188-3c12 0 14.679687 3 14.679687 3v20.951172c15.252442-14.884766 32.526856-24.809205 54.027344-26.279297 17.273682-1.102539 34.731445-.183045 50.535156 7.71875 62.663208 30.872223 69.461182 129.738037 28.84961 180.824218-30.688721 38.590271-92.799317 41.160645-128.265625 8.81836v108.238281s-4.488282 3-18.488282 3zm230.53125 0c-14 0-18.171875-3-18.171875-3v-300.271484s3.685547-3 16.685547-3c9 0 14.738282 3 14.738282 3v20.951172c15.252441-14.884766 32.526855-24.807374 54.027343-26.09375 17.45752-1.10254 34.913086-.184998 50.716797 7.716796 62.846924 30.872223 69.095947 129.921753 28.484375 180.824219-31.423584 39.509094-94.270019 40.792969-129.736328 6.980469v109.892578s-4.744141 3-16.744141 3zm-392.726562-88.558594c-92.690552-.471802-130.391358-128.249145-70.154297-191.742187 19.29541-20.030243 44.104004-27.930786 71.117188-28.84961 97.394409-3.491546 137.4552 130.656128 71.484375 194.238282-18.00879 17.273681-43.367676 25.360473-67.992188 26.279297-1.498779.057434-2.983887.081695-4.455078.074218zm694.160156-.472656c-18.121094-.07312-36.003174-4.186127-50.761719-12.283203-34.363769-18.743897-53.839111-62.112824-50.347656-100.703125 2.572754-29.40213 8.63501-57.883606 29.583985-80.302734 33.628906-35.650025 104.929443-37.120728 139.109375-1.654297 25.359619 26.278106 28.300781 61.562103 28.300781 95.925781h-158.957031c3.491455 11.760895 3.85913 24.074036 10.291015 34.916016 18.008789 30.137207 57.884766 39.138793 87.470703 20.027343 9.004395-5.880462 15.620362-21.131469 24.808594-24.623047 7.901855-2.940185 25.542236 6.614136 32.892578 9.921875-11.496582 39.543549-52.524414 58.93628-92.390625 58.775391zm-847.630859-3.402344c-14 0-18.304688-3-18.304688-3v-87.287109c0-22.235321 1.103272-44.28775-9.1875-64.685547-18.743896-37.12027-72.770996-35.46637-92.25 0-10.106933 18.376312-8.636718 39.14151-8.636718 59.355469v92.433594s-9.496094 3-18.496094 3c-14 0-18.25586-3-18.25586-3v-277.298829s3.925782-4 14.925782-4c9 0 16.68164 4 16.68164 4v94.271485c40.979492-40.795532 117.975098-43.736206 142.783203 17.457031 19.662598 48.697327 9.003907 113.932556 9.003907 165.753906 0 0-6.263672 3-18.263672 3zm985.226562-1.164062v-209.490235h31.427735v29.589844h1.83789c9.003907-19.111297 32.155274-29.953857 52.185547-31.240234 5.512695-.367432 16.90625-2.022156 20.949219 2.939453 5.145508 6.247925 1.837891 23.887268 1.837891 31.789062-10.841797-.918823-20.57959-2.571258-31.421875.552735-22.418946 6.431732-35.285157 26.462341-39.144532 48.330078-7.350097 41.163025-2.755859 85.99884-2.755859 127.529297zm-596.599609-28.148438c.30542.000916.612182-.000305.919922-.003906 1.890381-.022247 3.821777-.131958 5.798828-.330078 77.915405-7.718079 71.853149-161.710053-10.472656-154.175781-77.579956 7.150207-74.129517 154.276672 3.753906 154.509765zm230.453125 0c.304809.000916.608887-.000305.916016-.003906 1.886962-.022247 3.818603-.131958 5.791015-.330078 77.915772-7.718079 71.667725-161.710053-10.474609-154.175781-77.758423 7.150207-73.965332 154.276672 3.767578 154.509765zm-460.96875-1.40039c3.253906-.018158 6.62207-.269013 10.103516-.771485 79.385864-11.393341 64.686157-163.181457-22.601563-150.685547-78.403687 11.301514-67.552856 151.903778 12.498047 151.457032zm628.285156-94.490235h120.365235c-2.205079-17.273773-7.166749-36.018371-21.132813-47.779297-40.244141-33.444946-95.557373 1.103394-99.232422 47.779297z" fill="#ff8901" stroke="#ff8901" stroke-width="9"/><g fill="#53cd1d" stroke="#53cd1d"><path d="m937.103516 390.357422c-19.509095-.058777-38.764954-4.711517-54.201172-13.816406-34.547302-20.581543-50.534668-65.052002-46.859375-104.009766 2.572754-28.299561 10.474853-56.047363 31.240234-76.628906 32.342224-31.974884 96.476135-35.283753 130.839844-5.146485 30.504639 26.645722 34.916016 62.663971 34.916016 100.886719h-158.957032c2.756592 11.209656 3.860108 22.601624 9.373047 33.076172 16.722412 31.607361 58.62085 40.980713 88.390625 21.685547 8.820557-5.512909 15.802002-21.317383 24.806641-24.441406 8.085449-2.75644 25.544189 6.432495 32.894531 9.740234-11.482361 39.63266-52.496155 58.774689-92.443359 58.654297zm218.789062-2.841797c-13.602905.019745-26.953247-1.877563-39.058594-9.6875-21.500488-13.782288-22.787109-37.121368-22.787109-60.091797v-111.912109c-8.820801 0-36.199707 4.594696-41.896484-2.75586-4.594239-5.696624-1.837891-19.847107-1.837891-26.830078h43.734375v-57.517578s7.005127-5.156494 17.453125-5c11.900635-.545349 17.462891 5 17.462891 5v57.517578h62.847656v29.769532h-62.847656v99.416015c0 16.538696-1.101807 33.628723 13.966797 44.28711 14.517578 10.29071 32.525878 4.779418 48.880859 4.595703 0 0 5 7.720703 5 16.720703 0 12-5 14.701172-5 14.701172-11.714966.258422-23.915405 1.769683-35.917969 1.787109zm-518.664062-.667969c-7.485901-.029175-15.579468-1.11914-19.679688-1.11914v-209.490235s.386475-4.384186 15.839844-4.414062c10.563232-.020447 15.583984 4.414062 15.583984 4.414062v24.441407c40.979187-40.795533 117.976563-43.736207 142.96875 17.457031 19.846192 49.248535 9.003907 115.402893 9.003907 167.591797-7.717774 0-29.770997 3.859588-34.916016-2.75586-6.064453-7.718078-1.837891-31.239197-1.837891-40.794922 0-44.103241 13.415711-137.638671-54.02539-137.638671-70.014099 0-55.865235 91.697784-55.865235 137.638671 0 9.555725 4.226319 33.076844-1.83789 40.794922-2.497986 3.100983-8.629151 3.900727-15.234375 3.875zm239.691406-124.974609h120.365234c-3.491516-18.560059-7.900757-38.407288-24.439453-49.984375-40.611694-27.932068-93.904419 3.124695-95.925781 49.984375z" stroke-width="9"/><path d="m93.057571 272.533203c-11.165397.100495-16.610168-9.169128-21.035156-19.033203-9.200008-20.799957-13.799606-43.59964-25.099613-63.599609-13.599991-24.100006-35.400793-44.901215-42.30078-72.201172-15.099991-59.999939 34.100062-105.699585 89.500003-113.59961 59.799926-8.599975 93.000045 43.499604 141.5 67.59961 13.09999 6.599975 28.501144 11.400757 39.201156 21.800781 4.100037 4 8.898865 10.400024 7.798828 16.5-1.599975 8.700012-10.799988 12.900024-18.5 15-15.299957 4.099976-37.199218-.899628-47.699203 14.400391-17.099991 24.799957 22.399582 55.099273 7.599609 79.699218-5.799988 9.700013-19.100815 6.5-27.300781 2.5-16.400009-7.799987-39.598435-23.499633-57.898438-13.099609-22.499977 12.900024-14.400817 59.700806-42.800781 63.800781-1.03125.148438-2.018623.223908-2.964844.232422zm397.42772-71.683594c-39.779603-.122528-61.985138-38.357849-91.363282-60.949218-10.099975-7.800049-34.199951-15.801239-32-31.701172 1.5-11.100037 17.100769-15.298401 26.300782-17.898438 14.099975-4.099975 28.298828-8.501159 40.798828-16.701172 16.699981-11 31.201202-25.299255 52.201172-27.699218 8.899963-1 19.299255 1.599609 27.699218 4.599609 62.799988 21.799957 64.299988 110.699677 8.5 141.099609-7.099975 3.900025-14.698791 7.499573-22.798828 8.59961-3.220306.450012-6.329346.659668-9.33789.65039zm-1.955079-41.791015c1.471955-.01529 3.001954-.132813 4.591797-.359375 39.099976-5.600037 36.501099-72.898865-4.798828-66.298828-36.515594 5.861694-36.003021 67.034484.207031 66.658203zm-167.199218-30.53711c-9.646851-.103119-19.658203-2.821838-26.408203-9.421875-14.5-14.299987 3.799255-28.599975 17.699218-30.5 10.700012-1.5 25 .5 33 8.5 13.200012 13.300049-.200378 28.301209-14.90039 30.701172-3 .5-6.175019.755066-9.390625.720703z" stroke-width=".95"/><path d="m359.776306 451.144531c-6.945923.020172-14.129303-1.159759-20.654297-3.24414-6.299988-2-12.399963-3.000397-18-6.900391-33.19992-23.199982-28.599609-60.200836-36.099609-95.300781-1.099976-5.100006-2.100769-10.199219-3.300781-15.199219-3.200013-12.899963-20.898835-45 5.201172-46 14.799987-.599976 29.799621 10.399231 43.599609 14.199219 32.599945 9 68.600006-1.799958 92.5 28 39.799957 49.699951-.499695 122.000396-61.099609 124.40039-.712494.028138-1.427948.042847-2.146485.044922zm-.402344-41.019531c1.483735.005768 3.001954-.099213 4.548829-.324219 13.599975-1.899994 26.499633-10.600769 30.599609-24.300781 6.200012-20.899963-10.200043-42-32.5-38.5-13.299988 2.100006-25.900025 11.000793-30 24.300781-5.857025 19.244507 7.73349 38.747986 27.351562 38.824219zm-272.492172-67.386719c-8.609444-.087036-13.533203-8.033996-15.759765-16.138672-4.099999-14.700012.501205-41.899963 18.201171-46 10.400017-2.399963 16.898835 6.799622 19.298829 15.59961 3.899986 14.199951-1.200425 42.701172-18.400391 46.201172-1.170311.240631-2.282547.348571-3.339844.33789zm170.527329-62.417968c-14.134842-.036835-28.921067-14.923462-32.886704-26.820313-2.899994-8.400024-3.299576-19.600769 6.400391-23.800781 16.599991-7.200012 34.599594 10.800781 40.099594 24.800781 3 7.700012 2.999634 20.199219-5.900391 24.199219-2.5 1.125-5.095337 1.627929-7.71289 1.621094z" stroke-width=".95"/><path d="m79.678665 554.369141c-42.598778-.359558-84.719542-37.306702-77.457033-82.369141 4.599971-28.599976 27.900406-45.999634 43.900389-68.099609 7.199974-9.799988 13.099613-19.801209 18.599613-30.701172 3.099975-6.100006 7.001198-13.699616 14.201172-15.59961 8.399986-2.200012 15.099212 2.600403 18.699219 9.900391 7.599998 15 11.900398 31.399597 20.90039 45.599609 9.099999 14.299988 22.300385 25.000428 28.900391 40.900391 17.800003 42.699982-4.499649 86.599182-49.59961 98.199219-5.962493 1.525024-12.05899 2.221313-18.144531 2.169922zm-2.226562-41.603516c1.406379.008301 2.830467-.078125 4.269531-.265625 4.999992-.700012 9.901192-1.900024 14.201172-4.5 31.099975-19 5.800384-61.399994-25.59961-56.5-4.699974.700012-9.200782 2.199219-13.300785 4.699219-28.974964 17.251526-8.166721 56.397949 20.429692 56.566406z" stroke-width=".95"/></g></svg>